<svg width="40" height="40" viewBox="0 0 40 40" fill="none" xmlns="http://www.w3.org/2000/svg">
<g clip-path="url(#clip0_3_125)">
<path d="M31.1016 40H8.89834C6.53836 40 4.27502 39.0626 2.60626 37.3938C0.937502 35.725 2.50132e-06 33.4616 2.50132e-06 31.1016V8.89834C-0.000874148 7.72954 0.22869 6.57204 0.675562 5.49206C1.12243 4.41206 1.77785 3.43076 2.6043 2.6043C3.43076 1.77785 4.41206 1.12244 5.49206 0.675562C6.57204 0.22869 7.72954 -0.000874147 8.89834 2.50132e-06H31.1016C33.4616 2.50132e-06 35.725 0.937504 37.3938 2.60626C39.0624 4.27502 40 6.53834 40 8.89834V31.1016C40 33.4616 39.0624 35.725 37.3938 37.3938C35.725 39.0626 33.4616 40 31.1016 40ZM19.7867 21.8334H19.76C19.0369 21.8148 18.319 21.9602 17.66 22.2584C17.1327 22.496 16.7115 22.9198 16.4767 23.4484C16.1433 24.2184 16.275 26.6984 16.84 30.615C17.1733 32.9484 17.4067 34.0216 17.96 34.5566C18.0438 34.6688 18.1419 34.7698 18.2517 34.8566C18.547 35.0752 18.8895 35.2214 19.2517 35.2834C19.5059 35.3358 19.7655 35.3582 20.025 35.35C20.2846 35.3594 20.5442 35.337 20.7984 35.2834C21.1012 35.2172 21.3856 35.0852 21.6316 34.8966C21.9256 34.6574 22.151 34.3446 22.285 33.99C22.5406 33.2614 22.7086 32.505 22.785 31.7366C22.985 30.3734 23.22 28.3884 23.3316 27.12C23.4258 26.2522 23.457 25.3788 23.425 24.5066C23.4188 24.1234 23.3374 23.745 23.185 23.3934C23.0326 23.1094 22.813 22.8674 22.545 22.6884L22.4384 22.615C21.6734 22.0516 20.7348 21.7748 19.7867 21.8334ZM19.775 4.28C17.8584 4.26698 15.9601 4.65394 14.2015 5.41616C12.4429 6.17838 10.8626 7.29908 9.56166 8.70666C7.6732 10.6897 6.40364 13.1801 5.90834 15.8733C5.69164 17.5566 5.7096 19.2617 5.96166 20.94C6.38834 23.1028 7.30012 25.1406 8.62834 26.9C9.9746 28.6236 11.7013 30.0126 13.6733 30.9584L13.74 31.0066C14.223 31.2578 14.7245 31.4718 15.24 31.6466C15.2549 31.6492 15.2701 31.6492 15.285 31.6466C15.3833 31.61 15.395 31.4384 15.3333 30.88C15.2283 29.9084 15.1117 29.695 14.5467 29.4534C14.0692 29.223 13.6081 28.9602 13.1667 28.6666C10.5222 26.9064 8.62622 24.2262 7.84666 21.1466C7.54226 19.3058 7.54226 17.4275 7.84666 15.5867C8.42002 13.3083 9.61838 11.2354 11.3067 9.60166C12.9562 7.97352 15.0388 6.85354 17.3067 6.375C18.1321 6.2317 18.969 6.16474 19.8067 6.175C20.6444 6.16378 21.4814 6.23072 22.3066 6.375C24.5362 6.86072 26.5894 7.94948 28.2424 9.52248C29.8954 11.0955 31.0844 13.0923 31.68 15.295C32.0716 17.2173 32.0988 19.196 31.76 21.1284C31.197 23.359 30.0406 25.3954 28.4134 27.0216C27.4306 27.9902 26.3012 28.7972 25.0666 29.4134C24.505 29.6484 24.3866 29.8616 24.2666 30.84C24.2066 31.4 24.215 31.5634 24.3116 31.5984C24.3276 31.6012 24.344 31.6012 24.36 31.5984C25.7454 31.074 27.0548 30.3672 28.2534 29.4966C31.1034 27.339 33.0322 24.1836 33.6534 20.6634C33.8424 19.0776 33.838 17.4747 33.64 15.89C33.1528 13.1241 31.837 10.5714 29.8666 8.57C28.5726 7.1942 27.0078 6.10094 25.2708 5.35894C23.5338 4.61694 21.6622 4.24222 19.7733 4.25834L19.775 4.28ZM19.8333 8.96166C18.8683 8.93662 17.9049 9.05572 16.975 9.315C15.4487 9.82494 14.0713 10.7027 12.9644 11.8709C11.8576 13.0391 11.0553 14.4617 10.6283 16.0133C10.3092 17.5071 10.3046 19.051 10.615 20.5466C11.1291 22.489 12.2163 24.2312 13.735 25.5466L13.79 25.565C14.0518 25.7954 14.338 25.9966 14.6433 26.165C14.742 25.8368 14.7754 25.4926 14.7417 25.1516V24.1334L14.0533 23.3C12.8039 21.825 12.1501 19.9368 12.22 18.005C12.3122 16.0881 13.1268 14.2773 14.5 12.9367C15.6303 11.8015 17.1004 11.0664 18.6867 10.8433C19.085 10.7649 19.4892 10.7192 19.895 10.7067C20.3 10.719 20.7028 10.7692 21.0984 10.8567C22.6316 11.0988 24.0466 11.8267 25.135 12.9333C26.5126 14.2835 27.3238 16.1081 27.403 18.0355C27.4824 19.9628 26.8238 21.848 25.5616 23.3066L24.8684 24.14V25.14C24.8452 25.4754 24.8722 25.8124 24.9484 26.14C25.775 25.63 26.508 24.9816 27.115 24.2234C28.2288 22.846 28.9314 21.1822 29.1416 19.4233C29.4342 17.1282 28.838 14.808 27.475 12.9383C26.132 11.015 24.1206 9.66086 21.8334 9.14C21.1746 9.01246 20.5044 8.95272 19.8333 8.96166ZM19.7783 13.9467C19.2937 13.935 18.8128 14.0353 18.3733 14.24C17.8235 14.5027 17.3584 14.9144 17.0308 15.4282C16.7032 15.942 16.5262 16.5373 16.52 17.1467C16.506 17.6237 16.6007 18.0977 16.7967 18.5328C16.9928 18.9679 17.2851 19.3528 17.6517 19.6583C18.0321 20.038 18.4986 20.32 19.0116 20.4804C19.5245 20.6408 20.0686 20.6748 20.5976 20.5794C21.1264 20.484 21.6244 20.2622 22.0492 19.9329C22.4738 19.6035 22.8126 19.1764 23.0364 18.6878C23.2604 18.1993 23.3628 17.6638 23.3352 17.1271C23.3074 16.5904 23.1504 16.0683 22.8774 15.6054C22.6044 15.1425 22.2234 14.7525 21.7672 14.4686C21.3108 14.1847 20.7926 14.0154 20.2566 13.975C20.098 13.9559 19.9382 13.9465 19.7783 13.9467Z" fill="white"/>
</g>
<defs>
<clipPath id="clip0_3_125">
<rect width="40" height="40" fill="white"/>
</clipPath>
</defs>
</svg>
