<svg xmlns="http://www.w3.org/2000/svg" width="20" viewBox="0 0 20 20">
<path d="M15.5508 20H4.44917C3.26918 20 2.13751 19.5313 1.30313 18.6969C0.468751 17.8625 1.25066e-06 16.7308 1.25066e-06 15.5508V4.44917C-0.000437074 3.86477 0.114345 3.28602 0.337781 2.74603C0.561217 2.20603 0.888924 1.71538 1.30215 1.30215C1.71538 0.888922 2.20603 0.561216 2.74603 0.337779C3.28602 0.114343 3.86477 -0.000438981 4.44917 -6.56687e-07H15.5508C16.7308 -6.56687e-07 17.8625 0.46875 18.6969 1.30313C19.5312 2.13751 20 3.26917 20 4.44917V15.5508C20 16.7308 19.5312 17.8625 18.6969 18.6969C17.8625 19.5313 16.7308 20 15.5508 20ZM9.89333 10.9167H9.88C9.51846 10.9074 9.1595 10.9801 8.83 11.1292C8.56636 11.248 8.35573 11.4599 8.23833 11.7242C8.07167 12.1092 8.1375 13.3492 8.42 15.3075C8.58667 16.4742 8.70333 17.0108 8.98 17.2783C9.02192 17.3344 9.07094 17.3849 9.12583 17.4283C9.2735 17.5376 9.44476 17.6107 9.62583 17.6417C9.75297 17.6679 9.88275 17.6791 10.0125 17.675C10.1423 17.6797 10.2721 17.6685 10.3992 17.6417C10.5506 17.6086 10.6928 17.5426 10.8158 17.4483C10.9628 17.3287 11.0755 17.1723 11.1425 16.995C11.2703 16.6307 11.3543 16.2525 11.3925 15.8683C11.4925 15.1867 11.61 14.1942 11.6658 13.56C11.7129 13.1261 11.7285 12.6894 11.7125 12.2533C11.7094 12.0617 11.6687 11.8725 11.5925 11.6967C11.5163 11.5547 11.4065 11.4337 11.2725 11.3442L11.2192 11.3075C10.8367 11.0258 10.3674 10.8874 9.89333 10.9167V10.9167ZM9.8875 2.14C8.92918 2.13349 7.98004 2.32697 7.10073 2.70808C6.22143 3.08919 5.4313 3.64954 4.78083 4.35333C3.8366 5.34484 3.20182 6.59006 2.95417 7.93667C2.84582 8.77828 2.8548 9.63086 2.98083 10.47C3.19417 11.5514 3.65006 12.5703 4.31417 13.45C4.9873 14.3118 5.85063 15.0063 6.83667 15.4792L6.87 15.5033C7.11151 15.6289 7.36223 15.7359 7.62 15.8233C7.62744 15.8246 7.63506 15.8246 7.6425 15.8233C7.69167 15.805 7.6975 15.7192 7.66667 15.44C7.61417 14.9542 7.55583 14.8475 7.27333 14.7267C7.0346 14.6115 6.80406 14.4801 6.58333 14.3333C5.26112 13.4532 4.31311 12.1131 3.92333 10.5733C3.77113 9.65292 3.77113 8.71375 3.92333 7.79333C4.21001 6.65417 4.80919 5.61772 5.65333 4.80083C6.47812 3.98676 7.51942 3.42677 8.65333 3.1875C9.06605 3.11585 9.48448 3.08237 9.90333 3.0875C10.3222 3.08189 10.7407 3.11536 11.1533 3.1875C12.2681 3.43036 13.2947 3.97474 14.1212 4.76124C14.9477 5.54774 15.5422 6.54615 15.84 7.6475C16.0358 8.60864 16.0494 9.59802 15.88 10.5642C15.5985 11.6795 15.0203 12.6977 14.2067 13.5108C13.7153 13.9951 13.1506 14.3986 12.5333 14.7067C12.2525 14.8242 12.1933 14.9308 12.1333 15.42C12.1033 15.7 12.1075 15.7817 12.1558 15.7992C12.1638 15.8006 12.172 15.8006 12.18 15.7992C12.8727 15.537 13.5274 15.1836 14.1267 14.7483C15.5517 13.6695 16.5161 12.0918 16.8267 10.3317C16.9212 9.53878 16.919 8.73734 16.82 7.945C16.5764 6.56204 15.9185 5.2857 14.9333 4.285C14.2863 3.5971 13.5039 3.05047 12.6354 2.67947C11.7669 2.30847 10.8311 2.12111 9.88667 2.12917L9.8875 2.14ZM9.91667 4.48083C9.43414 4.46831 8.95245 4.52786 8.4875 4.6575C7.72433 4.91247 7.03565 5.35136 6.48222 5.93545C5.9288 6.51954 5.52765 7.23087 5.31417 8.00667C5.15459 8.75356 5.15232 9.52551 5.3075 10.2733C5.56455 11.2445 6.10817 12.1156 6.8675 12.7733L6.895 12.7825C7.02591 12.8977 7.16898 12.9983 7.32167 13.0825C7.37099 12.9184 7.38769 12.7463 7.37083 12.5758V12.0667L7.02667 11.65C6.40196 10.9125 6.07507 9.96838 6.11 9.0025C6.15612 8.04407 6.56342 7.13865 7.25 6.46833C7.81514 5.90074 8.55018 5.53322 9.34333 5.42167C9.54252 5.38243 9.74458 5.35958 9.9475 5.35333C10.15 5.35948 10.3514 5.38459 10.5492 5.42833C11.3158 5.54941 12.0233 5.91337 12.5675 6.46667C13.2563 7.14175 13.6619 8.05407 13.7015 9.01774C13.7412 9.98142 13.4119 10.924 12.7808 11.6533L12.4342 12.07V12.57C12.4226 12.7377 12.4361 12.9062 12.4742 13.07C12.8875 12.815 13.254 12.4908 13.5575 12.1117C14.1144 11.423 14.4657 10.5911 14.5708 9.71167C14.7171 8.56409 14.419 7.40401 13.7375 6.46917C13.066 5.5075 12.0603 4.83043 10.9167 4.57C10.5873 4.50623 10.2522 4.47636 9.91667 4.48083V4.48083ZM9.88917 6.97333C9.64683 6.96748 9.40642 7.01767 9.18667 7.12C8.91176 7.25136 8.6792 7.45718 8.5154 7.71408C8.35159 7.97098 8.26311 8.26867 8.26 8.57333C8.25302 8.81185 8.30033 9.04883 8.39835 9.26639C8.49638 9.48394 8.64255 9.67638 8.82583 9.82917C9.01604 10.019 9.24932 10.16 9.50579 10.2402C9.76226 10.3204 10.0343 10.3374 10.2988 10.2897C10.5632 10.242 10.8122 10.1311 11.0246 9.96645C11.2369 9.80177 11.4063 9.58819 11.5182 9.34391C11.6302 9.09964 11.6814 8.83191 11.6676 8.56355C11.6537 8.2952 11.5752 8.03417 11.4387 7.80271C11.3022 7.57126 11.1117 7.37625 10.8836 7.2343C10.6554 7.09236 10.3963 7.00768 10.1283 6.9875C10.049 6.97797 9.9691 6.97324 9.88917 6.97333Z" fill="#863cc1"/>
</svg>