<svg width="40" height="26" viewBox="0 0 40 26" fill="none" xmlns="http://www.w3.org/2000/svg">
<path d="M31.3516 26V20.9788H40V26H31.3516ZM20.9016 26V20.9788H29.55V26H20.9016ZM10.45 26V20.9788H19.0983V26H10.45ZM0 26V20.9788H8.64834V26H0ZM31.3516 19.0125V13.9847H40V19.0125H31.3516ZM20.9016 19.0125V13.9847H29.55V19.0125H20.9016ZM10.45 19.0125V13.9847H19.0983V19.0125H10.45ZM31.3516 12.025V6.9875H40V12.0087L31.3516 12.025ZM10.45 12.025V6.9875H19.0983V12.0087L10.45 12.025ZM31.3516 5.0375V0H40V5.02124L31.3516 5.0375Z" fill="#41AB5C"/>
</svg>
