<svg width="40" height="40" viewBox="0 0 40 40" fill="none" xmlns="http://www.w3.org/2000/svg">
<path d="M36.3634 3.82296e-07H3.63666C3.15904 -0.000218666 2.68604 0.0936972 2.24472 0.27638C1.8034 0.459062 1.40241 0.726928 1.06467 1.06467C0.726928 1.40241 0.459062 1.8034 0.27638 2.24472C0.0936972 2.68604 -0.000218666 3.15904 3.82296e-07 3.63666V36.3634C-0.000218666 36.841 0.0936972 37.314 0.27638 37.7552C0.459062 38.1966 0.726928 38.5976 1.06467 38.9354C1.40241 39.273 1.8034 39.541 2.24472 39.7236C2.68604 39.9064 3.15904 40.0002 3.63666 40H36.3634C36.841 40.0002 37.314 39.9064 37.7552 39.7236C38.1966 39.541 38.5976 39.273 38.9354 38.9354C39.273 38.5976 39.541 38.1966 39.7236 37.7552C39.9064 37.314 40.0002 36.841 40 36.3634V3.63666C40.0002 3.15904 39.9064 2.68604 39.7236 2.24472C39.541 1.8034 39.273 1.40241 38.9354 1.06467C38.5976 0.726928 38.1966 0.459062 37.7552 0.27638C37.314 0.0936972 36.841 -0.000218666 36.3634 3.82296e-07ZM9.09166 34.545C8.3724 34.545 7.66928 34.3318 7.07124 33.9322C6.4732 33.5326 6.00708 32.9646 5.73182 32.3C5.45658 31.6356 5.38456 30.9042 5.52488 30.1988C5.6652 29.4934 6.01156 28.8454 6.52016 28.3368C7.02876 27.8282 7.67674 27.4818 8.38218 27.3416C9.08764 27.2012 9.81884 27.2732 10.4834 27.5484C11.1479 27.8238 11.7158 28.2898 12.1154 28.888C12.515 29.486 12.7283 30.189 12.7283 30.9084C12.7286 31.386 12.6346 31.859 12.452 32.3002C12.2693 32.7416 12.0014 33.1426 11.6637 33.4804C11.3259 33.818 10.9249 34.086 10.4836 34.2686C10.0423 34.4514 9.5693 34.5452 9.09166 34.545ZM21.8184 34.545C21.336 34.545 20.8736 34.3534 20.5326 34.0124C20.1916 33.6714 20 33.209 20 32.7266C19.996 29.3526 18.6539 26.1178 16.2681 23.732C13.8822 21.346 10.6474 20.004 7.27334 20C6.79108 20 6.32858 19.8084 5.98758 19.4674C5.64658 19.1264 5.455 18.6639 5.455 18.1817C5.455 17.6994 5.64658 17.2369 5.98758 16.8959C6.32858 16.5549 6.79108 16.3633 7.27334 16.3633C11.6117 16.3682 15.7709 18.0937 18.8386 21.1614C21.9062 24.229 23.6318 28.3884 23.6366 32.7266C23.6366 33.209 23.445 33.6714 23.104 34.0124C22.763 34.3534 22.3006 34.545 21.8184 34.545ZM32.7266 34.545C32.2444 34.545 31.782 34.3534 31.441 34.0124C31.1 33.6714 30.9084 33.209 30.9084 32.7266C30.9 26.4608 28.4072 20.454 23.9766 16.0235C19.5459 11.5928 13.5392 9.10004 7.27334 9.09166C7.03454 9.09166 6.7981 9.04464 6.57748 8.95326C6.35688 8.86188 6.15642 8.72794 5.98758 8.55908C5.81872 8.39024 5.6848 8.18978 5.59342 7.96918C5.50204 7.74856 5.455 7.51212 5.455 7.27334C5.455 7.03454 5.50204 6.7981 5.59342 6.57748C5.6848 6.35688 5.81872 6.15642 5.98758 5.98758C6.15642 5.81872 6.35688 5.6848 6.57748 5.59342C6.7981 5.50204 7.03454 5.455 7.27334 5.455C14.5037 5.46338 21.4354 8.33932 26.548 13.4519C31.6606 18.5646 34.5366 25.4964 34.545 32.7266C34.545 33.209 34.3534 33.6714 34.0124 34.0124C33.6714 34.3534 33.209 34.545 32.7266 34.545Z" fill="#F78421"/>
</svg>
