<svg width="40" height="40" viewBox="0 0 40 40" fill="none" xmlns="http://www.w3.org/2000/svg">
<path d="M20 0C16.0444 0 12.1776 1.17298 8.8886 3.3706C5.59962 5.56824 3.03618 8.6918 1.52242 12.3463C0.00866604 16.0009 -0.387402 20.0222 0.384304 23.9018C1.15601 27.7814 3.06082 31.345 5.85788 34.1422C8.65492 36.9392 12.2186 38.844 16.0982 39.6158C19.9778 40.3874 23.9992 39.9914 27.6536 38.4776C31.3082 36.9638 34.4318 34.4004 36.6294 31.1114C38.827 27.8224 40 23.9556 40 20C40 14.6957 37.8928 9.6086 34.1422 5.85786C30.3914 2.10714 25.3044 0 20 0ZM29.1666 28.8466C29.0812 28.9864 28.9692 29.1082 28.8368 29.2046C28.7042 29.301 28.5542 29.3704 28.3948 29.4088C28.2356 29.4472 28.0702 29.4538 27.9084 29.4282C27.7466 29.4028 27.5914 29.3456 27.4516 29.26C22.7566 26.3916 16.845 25.7416 9.88334 27.3334C9.72368 27.3698 9.5584 27.3744 9.39694 27.347C9.23548 27.3196 9.081 27.2606 8.94234 27.1734C8.66228 26.9974 8.4636 26.7174 8.39 26.395C8.35356 26.2354 8.34894 26.07 8.37636 25.9086C8.4038 25.7472 8.46276 25.5926 8.5499 25.454C8.63702 25.3154 8.75062 25.1952 8.88418 25.1004C9.01776 25.0056 9.16868 24.9382 9.32834 24.9016C16.9467 23.16 23.4816 23.91 28.7534 27.1316C28.8932 27.217 29.0148 27.3292 29.1112 27.4616C29.2078 27.594 29.2772 27.7442 29.3154 27.9034C29.3538 28.0628 29.3606 28.228 29.335 28.3898C29.3094 28.5518 29.2522 28.707 29.1666 28.8466ZM31.615 23.4C31.5082 23.5748 31.3678 23.7268 31.2022 23.8474C31.0364 23.9678 30.8486 24.0546 30.6494 24.1024C30.45 24.1502 30.2434 24.1582 30.041 24.1262C29.8386 24.094 29.6446 24.0222 29.47 23.915C23.398 20.5282 16.2302 19.689 9.54 21.5816C9.34412 21.6412 9.13842 21.6616 8.93466 21.6416C8.7309 21.6216 8.53308 21.5618 8.35246 21.4654C8.17186 21.369 8.012 21.2378 7.88204 21.0796C7.75208 20.9214 7.65454 20.7392 7.595 20.5434C7.53548 20.3474 7.5151 20.1418 7.53508 19.938C7.55504 19.7342 7.61494 19.5364 7.71136 19.3558C7.80778 19.1752 7.93882 19.0153 8.09702 18.8854C8.2552 18.7554 8.43746 18.6579 8.63334 18.5983C12.3664 17.5231 16.2767 17.2043 20.1346 17.6605C23.9926 18.1167 27.7206 19.3388 31.1 21.255C31.2744 21.362 31.4262 21.5024 31.5464 21.668C31.6666 21.8336 31.753 22.0214 31.8006 22.2204C31.8482 22.4194 31.8562 22.6258 31.8242 22.828C31.792 23.03 31.7204 23.2238 31.6134 23.3984L31.615 23.4ZM31.825 17.7333C25.3834 13.9 14.745 13.5483 8.595 15.415C8.35994 15.4864 8.11312 15.5107 7.86864 15.4867C7.62416 15.4626 7.38682 15.3907 7.17014 15.2749C6.73256 15.0411 6.40578 14.6431 6.26168 14.1683C6.11758 13.6936 6.16796 13.1811 6.40176 12.7435C6.63556 12.3059 7.0336 11.9791 7.50834 11.835C14.5783 9.69166 26.3184 10.105 33.745 14.5117C34.1718 14.7647 34.4806 15.177 34.6034 15.6577C34.7262 16.1384 34.653 16.6482 34.4 17.075C34.147 17.5018 33.7348 17.8105 33.254 17.9334C32.7732 18.0562 32.2634 17.9831 31.8366 17.73L31.825 17.7333Z" fill="#1ED760"/>
</svg>
